<svg xmlns="http://www.w3.org/2000/svg" width="107" height="31" viewBox="0 0 107 31"><path fill="#0b0b15" d="M18.72 1.84L18.72 1.84L27.68 1.84Q26.68 2.84 24.20 3.36Q21.72 3.88 18.60 4.18Q15.48 4.48 14.52 4.68L14.52 4.68Q10.24 5.68 10.24 9.80L10.24 9.80Q9 8.52 9 7.04L9 7.04Q9 1.84 18.72 1.84ZM29.72 1.84L29.72 1.84L32.60 1.84Q30.76 3.60 28.86 11.46Q26.96 19.32 26.96 23.60L26.96 23.60Q26.96 26.64 28.08 27.80L28.08 27.80Q28.56 28.32 29.28 28.32Q30 28.32 30.80 27.80L30.80 27.80L31.04 28.16Q30.48 28.96 29.04 29.54Q27.60 30.12 26.20 30.12L26.20 30.12Q24.12 30.12 23.36 28.64Q22.60 27.16 22.48 24.68L22.48 24.68Q22.48 22.64 23 19.40L23 19.40L13.84 19.40Q7.88 25.72 4.48 29.76L4.48 29.76L0.48 29.76Q4.24 26.32 12.16 18.48L12.16 18.48Q22.36 8.32 25.56 4.40L25.56 4.40Q26.36 3.44 26.76 3.06Q27.16 2.68 27.98 2.26Q28.80 1.84 29.72 1.84ZM25.60 7.48L25.60 7.48Q21.04 11.76 15.60 17.40L15.60 17.40L23.28 17.40Q24 13.44 25.60 7.48ZM42.16 13.68L42.16 13.68L44.20 13.72L44.60 13.72Q44 14.16 42.90 16.32Q41.80 18.48 41.26 19.58Q40.72 20.68 40.06 22.54Q39.40 24.40 39.40 25.56Q39.40 26.72 40.20 26.72L40.20 26.72Q40.72 26.68 41.66 25.98Q42.60 25.28 43.22 24.50Q43.84 23.72 44.58 22.50Q45.32 21.28 45.86 20.38Q46.40 19.48 46.48 19.48L46.48 19.48Q46.76 19.48 46.76 20.22Q46.76 20.96 46.36 21.64L46.36 21.64Q44.64 24.48 43.52 26.00Q42.40 27.52 40.82 28.78Q39.24 30.04 37.96 30.04L37.96 30.04Q35.68 30.04 35.68 26.68L35.68 26.68Q35.68 24.40 36.56 21.52Q37.44 18.64 39.16 15.96L39.16 15.96Q37.76 17.08 36.36 17.08L36.36 17.08Q35.92 17.08 35.44 16.88L35.44 16.88Q32.60 22.48 32.38 22.48Q32.16 22.48 32.16 21.82Q32.16 21.16 32.66 19.98Q33.16 18.80 33.74 17.72Q34.32 16.64 34.36 16.52L34.36 16.52Q32.92 15.80 32.92 14.20L32.92 14.20Q32.92 13.40 33.42 12.76Q33.92 12.12 34.80 12.12Q35.68 12.12 36.24 12.68L36.24 12.68Q36.16 12.92 36.16 13.40L36.16 13.40Q36.16 14.48 36.94 15.10Q37.72 15.72 38.84 15.72L38.84 15.72Q39.16 15.72 39.32 15.68L39.32 15.68Q40.72 13.68 42.16 13.68ZM60.80 19.52L60.80 19.52Q61.04 19.52 61.04 20.28Q61.04 21.04 60.38 22.16Q59.72 23.28 59.34 23.86Q58.96 24.44 58.04 25.72Q57.12 27.00 56.44 27.56Q55.76 28.12 54.72 28.88L54.72 28.88Q52.96 30.16 50.14 30.16Q47.32 30.16 46.06 28.74Q44.80 27.32 44.80 25.04L44.80 25.04Q44.80 20.84 47.78 17.34Q50.76 13.84 54.80 13.84L54.80 13.84Q56.60 13.84 57.68 14.78Q58.76 15.72 58.76 17.02Q58.76 18.32 58.04 19.28Q57.32 20.24 56.40 20.24L56.40 20.24Q54.60 20.24 54.60 18.76L54.60 18.76Q54.60 18.28 55.60 17.84L55.60 17.84Q56 17.68 56.32 17.24Q56.64 16.80 56.64 16.08L56.64 16.08Q56.64 15.04 55.52 15.04L55.52 15.04Q53.12 15.04 50.76 18.52Q48.40 22.00 48.40 25.26Q48.40 28.52 51.24 28.52L51.24 28.52Q55.20 28.52 58.96 22.40L58.96 22.40Q59.72 21.20 60.22 20.36Q60.72 19.52 60.80 19.52ZM78.16 21.72L78.16 21.72Q73.24 30.00 69.84 30.00L69.84 30.00Q67.48 30.00 67.48 27.28L67.48 27.28Q67.48 24.12 70 18.28L70 18.28Q70.56 16.80 70.56 16.24L70.56 16.24Q70.56 15.44 69.84 15.44L69.84 15.44Q69.36 15.44 68.22 16.00Q67.08 16.56 66.04 17.64Q65 18.72 64.30 20.14Q63.60 21.56 63.18 22.60Q62.76 23.64 62.32 25.14Q61.88 26.64 61.54 27.58Q61.20 28.52 60.84 29.76L60.84 29.76L56.96 29.76Q58.04 27.00 60.06 20.94Q62.08 14.88 63.52 11.42Q64.96 7.96 66.34 5.58Q67.72 3.20 69.50 1.60Q71.28 0.00 73.26 0.00Q75.24 0.00 75.24 1.88L75.24 1.88Q75.24 3.20 74.16 5.36L74.16 5.36Q71.84 9.92 66.40 15.92L66.40 15.92Q68.56 14.36 69.82 13.88Q71.08 13.40 72.24 13.40L72.24 13.40Q74.52 13.40 74.52 15.40L74.52 15.40Q74.52 16.20 74.24 16.88Q73.96 17.56 73.62 18.44Q73.28 19.32 73.06 19.88Q72.84 20.44 72.48 21.40Q72.12 22.36 71.92 23.04L71.92 23.04Q71.40 24.72 71.40 25.72Q71.40 26.72 72.08 26.72L72.08 26.72Q74.48 26.72 78.08 19.76L78.08 19.76Q78.20 19.48 78.38 19.48Q78.56 19.48 78.56 20.22Q78.56 20.96 78.16 21.72ZM73.32 1.00L73.32 1.00Q71.92 1.00 69.66 5.44Q67.40 9.88 65.24 15.64L65.24 15.64Q70.72 9.20 72.72 5.08L72.72 5.08Q73.84 2.56 73.84 1.78Q73.84 1.00 73.32 1.00ZM92.72 19.36L92.72 19.36Q92.96 19.36 92.96 20.14Q92.96 20.92 92.32 22.00Q91.68 23.08 91.06 24.04Q90.44 25.00 89.40 26.28Q88.36 27.56 87.36 28.32L87.36 28.32Q84.84 30.16 82.30 30.16Q79.76 30.16 78.20 28.86Q76.64 27.56 76.64 24.88L76.64 24.88Q76.64 20.80 79.64 17.32Q82.64 13.84 86.64 13.84L86.64 13.84Q88.44 13.84 89.52 14.78Q90.60 15.72 90.60 17.04L90.60 17.04Q90.60 19.28 88.48 20.64Q86.36 22.00 83.48 22.00L83.48 22.00Q81.80 22.00 81 21.56L81 21.56Q80.24 23.60 80.24 25.16L80.24 25.16Q80.24 28.52 83.08 28.52L83.08 28.52Q84.76 28.52 86.54 27.22Q88.32 25.92 89.58 24.30Q90.84 22.68 92.44 19.64L92.44 19.64Q92.60 19.36 92.72 19.36ZM88.48 16.20L88.48 16.20Q88.48 15.04 87.36 15.04L87.36 15.04Q85.80 15.04 83.88 16.96Q81.96 18.88 81.96 20.08L81.96 20.08Q81.96 20.88 83.48 20.88Q85 20.88 86.66 19.40Q88.32 17.92 88.48 16.20ZM101.76 13.68L101.76 13.68L103.80 13.72L104.20 13.72Q103.60 14.16 102.50 16.32Q101.40 18.48 100.86 19.58Q100.32 20.68 99.66 22.54Q99 24.40 99 25.56Q99 26.72 99.80 26.72L99.80 26.72Q100.32 26.68 101.26 25.98Q102.20 25.28 102.82 24.50Q103.44 23.72 104.18 22.50Q104.92 21.28 105.46 20.38Q106 19.48 106.08 19.48L106.08 19.48Q106.36 19.48 106.36 20.22Q106.36 20.96 105.96 21.64L105.96 21.64Q104.24 24.48 103.12 26.00Q102 27.52 100.42 28.78Q98.84 30.04 97.56 30.04L97.56 30.04Q95.28 30.04 95.28 26.68L95.28 26.68Q95.28 24.40 96.16 21.52Q97.04 18.64 98.76 15.96L98.76 15.96Q97.36 17.08 95.96 17.08L95.96 17.08Q95.52 17.08 95.04 16.88L95.04 16.88Q92.20 22.48 91.98 22.48Q91.76 22.48 91.76 21.82Q91.76 21.16 92.26 19.98Q92.76 18.80 93.34 17.72Q93.92 16.64 93.96 16.52L93.96 16.52Q92.52 15.80 92.52 14.20L92.52 14.20Q92.52 13.40 93.02 12.76Q93.52 12.12 94.40 12.12Q95.28 12.12 95.84 12.68L95.84 12.68Q95.76 12.92 95.76 13.40L95.76 13.40Q95.76 14.48 96.54 15.10Q97.32 15.72 98.44 15.72L98.44 15.72Q98.76 15.72 98.92 15.68L98.92 15.68Q100.32 13.68 101.76 13.68Z"></path></svg>